<?xml version="1.0" encoding="utf-8"?>
<!-- Svg Vector Icons : http://www.onlinewebfonts.com/icon -->
<!DOCTYPE svg PUBLIC "-//W3C//DTD SVG 1.1//EN" "http://www.w3.org/Graphics/SVG/1.1/DTD/svg11.dtd">
<svg version="1.1" xmlns="http://www.w3.org/2000/svg" xmlns:xlink="http://www.w3.org/1999/xlink" x="0px" y="0px" viewBox="0 0 256 256" enable-background="new 0 0 256 256" xml:space="preserve">
<metadata> Svg Vector Icons : http://www.onlinewebfonts.com/icon </metadata>
<g><g><path fill="#000000" d="M129.7,163.7v-20.4c0-14.6,11.8-26.4,26.4-26.4h76V80.4c0-7.4-5.9-13.5-13.2-13.5H23.2c-7.3,0-13.2,6-13.2,13.5v147.2c0,7.4,5.9,13.5,13.2,13.5H219c7.3,0,13.2-6,13.2-13.5v-37.5h-76C141.5,190.1,129.7,178.3,129.7,163.7z"/><path fill="#000000" d="M233.7,125.8h-81.3c-6.8,0-12.3,6.5-12.3,14.6v27.2c0,8.1,5.5,14.6,12.3,14.6h81.3c6.8,0,12.3-6.5,12.3-14.6v-27.2C246,132.4,240.5,125.8,233.7,125.8z M172,163.7c-5.3,0-9.7-4.3-9.7-9.7s4.3-9.7,9.7-9.7c5.3,0,9.7,4.3,9.7,9.7C181.7,159.4,177.4,163.7,172,163.7z"/><path fill="#000000" d="M205.4,58.7l-5.4-19c0,0-4.9-9.4-18.8-4.9c-13.8,4.5-85.9,23.9-85.9,23.9H205.4z"/><path fill="#000000" d="M159.4,32.3L153,19.9c0,0-7.4-8.4-16.8-3.5c-9.4,4.9-84.6,42-84.6,42l14.4,0.2L159.4,32.3z"/></g></g>
</svg>